<svg version="1.2" xmlns="http://www.w3.org/2000/svg" width="1500" height="500"><style>.prefix__a,.prefix__b{fill:none;stroke:#00f;stroke-linecap:round;stroke-linejoin:round;stroke-width:25}.prefix__b{stroke:red}</style><path class="prefix__a" d="M1051.4 290.6l28.1-73.3m29.2 73.3l22.5-58.4h-56.1m110.4 58.4h-33.8l44.7-116.8m26.5 116.8l14.4-35.9m28.3 35.9l28.3-73.3m31.3 73.3l21.6-58.4h-58.1m129.7 58.4h-50.8l27.7-73.3h50.6l-13.7 37.4H1381m-130.5-36l.5-1.4M920.2 173.8h132.3l-44.3 116.8h-133z"/><path class="prefix__b" d="M325.1 290.6l-44.5-116.8m116.6 116.8L375 232.2m-73 0h72.4m148.5 58.4h-81L420 232.2h60.2l21.6 58.4m68.1 0l-27.5-73.3m87.1 73.3l-21.9-58.4H548m185.2 58.4h-59L652 232.2h59.6L756.3 350l-58.7-.3M756 232.2l21.9 58.4h58.8l-21.6-58.4h-58.5M54 121.2h33.5l78.3 204.6H375m-267.2-152h133.7"/><path d="M164.6 393.5c-9.7 0-17.5-7.8-17.5-17.5s7.8-17.5 17.5-17.5 17.6 7.8 17.6 17.5-7.9 17.5-17.6 17.5zm0 0c-9.7 0-17.5-7.8-17.5-17.5s7.8-17.5 17.5-17.5 17.6 7.8 17.6 17.5-7.9 17.5-17.6 17.5zm180 0c-9.7 0-17.5-7.8-17.5-17.5s7.8-17.5 17.5-17.5 17.6 7.8 17.6 17.5-7.9 17.5-17.6 17.5zm0 0c-9.7 0-17.5-7.8-17.5-17.5s7.8-17.5 17.5-17.5 17.6 7.8 17.6 17.5-7.9 17.5-17.6 17.5z" fill="none" stroke="red" stroke-linecap="round" stroke-linejoin="round" stroke-width="15"/></svg>