<svg version="1.2" xmlns="http://www.w3.org/2000/svg" width="400" height="400"><path d="M0 85c0-27.6 22.4-50 50-50h300c27.6 0 50 22.4 50 50v230c0 27.6-22.4 50-50 50H50c-27.6 0-50-22.4-50-50z" fill="#fff"/><path d="M0 50C0 22.4 22.4 0 50 0h300c27.6 0 50 22.4 50 50v300c0 27.6-22.4 50-50 50H50c-27.6 0-50-22.4-50-50z" fill="#fff"/><path d="M250.6 132.8h122.6L332.1 241H208.9z" fill="none" stroke="#00f" stroke-linecap="round" stroke-linejoin="round" stroke-width="25"/><path d="M26 84h31.1l72.6 189.6h193.9M75.8 132.8h124" fill="none" stroke="red" stroke-linecap="round" stroke-linejoin="round" stroke-width="25"/><path d="M128.6 336.5c-9 0-16.3-7.3-16.3-16.3s7.3-16.2 16.3-16.2 16.2 7.2 16.2 16.2-7.2 16.3-16.2 16.3zm0 0c-9 0-16.3-7.3-16.3-16.3s7.3-16.2 16.3-16.2 16.2 7.2 16.2 16.2-7.2 16.3-16.2 16.3zm166.8 0c-8.9 0-16.2-7.3-16.2-16.3s7.3-16.2 16.2-16.2c9 0 16.3 7.2 16.3 16.2s-7.3 16.3-16.3 16.3zm0 0c-8.9 0-16.2-7.3-16.2-16.3s7.3-16.2 16.2-16.2c9 0 16.3 7.2 16.3 16.2s-7.3 16.3-16.3 16.3z" fill="none" stroke="red" stroke-linecap="round" stroke-linejoin="round" stroke-width="15"/></svg>